<svg width="30" height="90" viewBox="0 0 30 90" fill="none" xmlns="http://www.w3.org/2000/svg">
<path d="M22.6885 30.8829C24.5683 27.4004 26.2257 23.8779 27.2904 20.0409C28.4617 15.8195 28.7425 11.5962 27.068 7.45216C25.8937 4.54609 23.9784 2.60108 21.1111 1.95123C20.0398 1.70842 18.9989 1.29554 17.8469 0.92932C19.7691 -0.269272 21.6007 -0.262203 23.465 0.684849C27.1508 2.55725 28.9622 6.00379 29.7009 10.2687C30.5072 14.9242 29.5972 19.3426 28.0022 23.631C26.0066 28.9962 23.2643 33.8803 20.3306 38.6367C18.9942 40.8035 17.6271 42.9478 16.2209 45.0575C15.8344 45.6375 15.8917 46.009 16.2203 46.5639C19.3033 51.7713 22.3172 57.0279 24.684 62.71C26.7493 67.6682 28.3445 72.7912 27.6904 78.365C27.1001 83.3954 25.1543 87.5203 20.6588 89.5102C18.8426 90.3142 17.0859 90.1204 15.2319 88.9878C15.5235 88.8494 15.6825 88.7418 15.8545 88.6973C17.1124 88.3717 18.3925 88.1341 19.6287 87.7269C22.7935 86.6844 24.5008 84.0358 25.4358 80.6763C26.4307 77.1014 26.1323 73.5209 25.2289 69.9752C24.1698 65.8185 22.5144 61.952 20.5678 58.2494C18.871 55.022 17.0647 51.867 15.2879 48.6935C14.7039 47.6505 14.6507 47.7207 13.9049 48.6737C13.3136 49.4293 13.4088 49.9701 13.8638 50.7745C16.5516 55.5272 18.5979 60.596 19.3304 66.2176C20.085 72.0076 19.153 77.3625 15.6093 81.85C13.7197 84.2427 11.3629 85.8554 8.45811 86.1426C4.51951 86.532 1.30718 83.7756 0.362391 79.3077C-0.451624 75.4581 0.198231 71.7774 1.39311 68.1731C2.68317 64.2818 4.61162 60.7667 6.63039 57.321C8.78054 53.6511 10.9968 50.0299 13.2064 46.4046C13.5204 45.8894 13.4425 45.5507 13.1558 45.0594C9.42808 38.6699 5.73557 32.25 2.71158 25.393C0.95516 21.4103 -0.12112 17.2084 0.187188 12.6773C0.480509 8.36647 2.70635 4.18211 7.10361 3.67832C9.79983 3.36944 12.1575 4.44002 14.1523 6.38718C18.7049 10.831 20.0204 16.5897 19.1738 23.0892C18.3842 29.1504 15.962 34.4599 12.9134 39.4395C12.5648 40.009 12.5049 40.4097 12.875 40.9647C13.3251 41.6398 13.7059 42.373 14.122 43.0771C14.5762 43.8454 14.857 43.8815 15.3273 43.1253C17.3608 39.8555 19.3794 36.5739 21.3857 33.283C21.8441 32.5313 22.2325 31.7256 22.6885 30.8829ZM6.37853 61.2571C5.37397 63.4475 4.27106 65.589 3.38857 67.84C2.15189 70.9945 1.37713 74.2996 1.86402 77.7971C2.08022 79.3501 2.40298 80.8933 3.42504 82.1046C5.59724 84.6791 8.64766 84.7933 11.2959 83.166C15.3642 80.666 17.2639 76.5442 17.7333 71.5267C18.1566 67.0019 17.1724 62.7139 15.5618 58.6144C14.6107 56.1936 13.4703 53.867 12.2981 51.2356C11.1784 53.1196 10.2494 54.687 9.31634 56.2513C8.34923 57.8726 7.37813 59.4909 6.37853 61.2571ZM14.2838 9.25796C13.6876 8.64425 13.139 7.95592 12.4874 7.42889C8.18251 3.94715 2.74905 5.35821 1.96036 12.4014C1.53594 16.1915 2.26534 19.807 3.76229 23.1148C5.91276 27.8666 8.35948 32.4488 10.6864 37.0991C10.8845 37.4948 11.1328 37.8586 11.388 38.2882C11.5538 38.1153 11.6565 38.0425 11.7182 37.9388C14.3837 33.4641 16.5583 28.7311 17.3653 23.3624C18.1342 18.2463 17.5007 13.4533 14.2838 9.25796Z" fill="#FF7723"/>
</svg>
